G04*
G04 #@! TF.GenerationSoftware,Altium Limited,Altium Designer,25.4.2 (15)*
G04*
G04 Layer_Color=8421504*
%FSLAX44Y44*%
%MOMM*%
G71*
G04*
G04 #@! TF.SameCoordinates,15869630-21D1-4171-BE07-BC68FFD32C74*
G04*
G04*
G04 #@! TF.FilePolarity,Positive*
G04*
G01*
G75*
%ADD21R,0.6000X0.8000*%
%ADD22R,1.3000X0.7000*%
%ADD23R,1.4500X1.0500*%
%ADD24R,1.5500X1.3500*%
%ADD25R,0.6350X1.2700*%
%ADD26R,2.0000X2.0000*%
%ADD27R,1.4000X0.9500*%
%ADD28R,1.3800X0.4500*%
%ADD29R,2.1000X1.4750*%
%ADD30R,1.9000X2.3750*%
%ADD31R,1.9000X1.1750*%
%ADD32R,6.3500X3.3000*%
%ADD33R,6.3500X3.8100*%
%ADD34R,4.0600X3.3000*%
D21*
X369200Y124460D02*
D03*
X354700D02*
D03*
X369200Y100330D02*
D03*
X354700D02*
D03*
D22*
X326960Y266040D02*
D03*
Y247040D02*
D03*
X302960D02*
D03*
Y256540D02*
D03*
Y266040D02*
D03*
D23*
X336550Y175370D02*
D03*
Y156870D02*
D03*
D24*
X257810Y456340D02*
D03*
Y475840D02*
D03*
X307340Y456340D02*
D03*
Y475840D02*
D03*
D25*
X274320Y510540D02*
D03*
X283210D02*
D03*
X292100D02*
D03*
D26*
X427040Y125730D02*
D03*
X467040D02*
D03*
X428310Y189230D02*
D03*
X468310D02*
D03*
D27*
X300990Y98700D02*
D03*
Y117200D02*
D03*
X373380Y175620D02*
D03*
Y157120D02*
D03*
D28*
X525850Y124915D02*
D03*
Y131415D02*
D03*
Y137915D02*
D03*
Y144415D02*
D03*
Y150915D02*
D03*
D29*
X529450Y113290D02*
D03*
Y162540D02*
D03*
D30*
X552450Y108790D02*
D03*
Y167040D02*
D03*
D31*
Y129540D02*
D03*
Y146290D02*
D03*
D32*
X495800Y426740D02*
D03*
D33*
Y293840D02*
D03*
D34*
X404400Y365740D02*
D03*
M02*
