G04*
G04 #@! TF.GenerationSoftware,Altium Limited,Altium Designer,25.4.2 (15)*
G04*
G04 Layer_Color=8388736*
%FSLAX44Y44*%
%MOMM*%
G71*
G04*
G04 #@! TF.SameCoordinates,15869630-21D1-4171-BE07-BC68FFD32C74*
G04*
G04*
G04 #@! TF.FilePolarity,Negative*
G04*
G01*
G75*
%ADD27R,1.4000X0.9500*%
%ADD32R,6.3500X3.3000*%
%ADD33R,6.3500X3.8100*%
%ADD34R,4.0600X3.3000*%
%ADD35R,0.8032X1.0032*%
%ADD36R,1.5032X0.9032*%
%ADD37R,1.6532X1.2532*%
%ADD38R,1.7532X1.5532*%
%ADD39R,0.8382X1.4732*%
%ADD40R,2.2032X2.2032*%
%ADD41R,1.5832X0.6532*%
%ADD42R,2.3032X1.6782*%
%ADD43R,2.1032X2.5782*%
%ADD44R,2.1032X1.3782*%
%ADD45C,1.5240*%
%ADD46C,1.2032*%
%ADD47C,1.8532*%
%ADD48C,4.7032*%
%ADD49R,1.8032X1.8032*%
%ADD50C,1.8032*%
%ADD51C,1.7800*%
%ADD52C,1.4732*%
%ADD53C,1.0668*%
D27*
X300990Y98700D02*
D03*
Y117200D02*
D03*
X373380Y175620D02*
D03*
Y157120D02*
D03*
D32*
X495800Y426740D02*
D03*
D33*
Y293840D02*
D03*
D34*
X404400Y365740D02*
D03*
D35*
X369200Y124460D02*
D03*
X354700D02*
D03*
X369200Y100330D02*
D03*
X354700D02*
D03*
D36*
X326960Y266040D02*
D03*
Y247040D02*
D03*
X302960D02*
D03*
Y256540D02*
D03*
Y266040D02*
D03*
D37*
X336550Y175370D02*
D03*
Y156870D02*
D03*
D38*
X257810Y456340D02*
D03*
Y475840D02*
D03*
X307340Y456340D02*
D03*
Y475840D02*
D03*
D39*
X274320Y510540D02*
D03*
X283210D02*
D03*
X292100D02*
D03*
D40*
X427040Y125730D02*
D03*
X467040D02*
D03*
X428310Y189230D02*
D03*
X468310D02*
D03*
D41*
X525850Y124915D02*
D03*
Y131415D02*
D03*
Y137915D02*
D03*
Y144415D02*
D03*
Y150915D02*
D03*
D42*
X529450Y113290D02*
D03*
Y162540D02*
D03*
D43*
X552450Y108790D02*
D03*
Y167040D02*
D03*
D44*
Y129540D02*
D03*
Y146290D02*
D03*
D45*
X257810Y123190D02*
D03*
Y97790D02*
D03*
Y370840D02*
D03*
Y345440D02*
D03*
D46*
X27940Y26670D02*
D03*
X539750Y535940D02*
D03*
Y26670D02*
D03*
X25400Y535940D02*
D03*
D47*
X215900Y374650D02*
D03*
Y425450D02*
D03*
X214630Y190500D02*
D03*
Y139700D02*
D03*
D48*
X139700Y463550D02*
D03*
Y336550D02*
D03*
X138430Y101600D02*
D03*
Y228600D02*
D03*
D49*
X346710Y455930D02*
D03*
D50*
Y305930D02*
D03*
D51*
X533400Y358140D02*
D03*
D52*
X487680Y151130D02*
D03*
X303530Y297180D02*
D03*
X336550Y201930D02*
D03*
X373380Y205740D02*
D03*
X257810Y431800D02*
D03*
D53*
X428625Y434340D02*
D03*
X405130D02*
D03*
X452120Y414020D02*
D03*
X428625D02*
D03*
X405130D02*
D03*
X452120Y434340D02*
D03*
M02*
