G04*
G04 #@! TF.GenerationSoftware,Altium Limited,Altium Designer,25.4.2 (15)*
G04*
G04 Layer_Color=65535*
%FSLAX44Y44*%
%MOMM*%
G71*
G04*
G04 #@! TF.SameCoordinates,15869630-21D1-4171-BE07-BC68FFD32C74*
G04*
G04*
G04 #@! TF.FilePolarity,Positive*
G04*
G01*
G75*
%ADD10C,0.5080*%
%ADD11C,0.2500*%
%ADD12C,0.1524*%
%ADD13C,0.4000*%
%ADD14C,0.2540*%
%ADD15C,0.2000*%
%ADD16C,0.1270*%
%ADD17C,0.3810*%
%ADD18C,0.3048*%
%ADD19C,0.2032*%
%ADD20R,0.7778X2.6000*%
D10*
X229870Y97790D02*
G03*
X229870Y97790I-3810J0D01*
G01*
Y345440D02*
G03*
X229870Y345440I-3810J0D01*
G01*
D11*
X304210Y275040D02*
G03*
X304210Y275040I-1250J0D01*
G01*
X483790Y125730D02*
G03*
X483790Y125730I-1250J0D01*
G01*
X414060Y189230D02*
G03*
X414060Y189230I-1250J0D01*
G01*
X514700Y124915D02*
G03*
X514700Y124915I-1250J0D01*
G01*
D12*
X243840Y85090D02*
Y135890D01*
X271780D01*
Y85090D02*
Y135890D01*
X243840Y85090D02*
X271780D01*
X243840Y332740D02*
Y383540D01*
X271780D01*
Y332740D02*
Y383540D01*
X243840Y332740D02*
X271780D01*
X378465Y102869D02*
Y95251D01*
X383543D01*
X391160Y102869D02*
X386082D01*
Y95251D01*
X391160D01*
X386082Y99060D02*
X388621D01*
X393700Y102869D02*
Y95251D01*
X397508D01*
X398778Y96521D01*
Y101599D01*
X397508Y102869D01*
X393700D01*
X406395Y95251D02*
X401317D01*
X406395Y100330D01*
Y101599D01*
X405126Y102869D01*
X402587D01*
X401317Y101599D01*
X378464Y128269D02*
Y120651D01*
X383543D01*
X391160Y128269D02*
X386082D01*
Y120651D01*
X391160D01*
X386082Y124460D02*
X388621D01*
X393699Y128269D02*
Y120651D01*
X397508D01*
X398778Y121921D01*
Y126999D01*
X397508Y128269D01*
X393699D01*
X401317Y120651D02*
X403856D01*
X402586D01*
Y128269D01*
X401317Y126999D01*
D13*
X346700Y120460D02*
Y128460D01*
Y96330D02*
Y104330D01*
D14*
X25690Y7420D02*
X46940D01*
X18065Y46170D02*
X36315D01*
X8940Y7420D02*
X25690D01*
X8940D02*
Y46170D01*
X18065D01*
X46940Y7420D02*
Y46170D01*
X36315D02*
X46940D01*
X298450Y513080D02*
Y520700D01*
X267970D02*
X298450D01*
X267970Y500380D02*
Y520700D01*
Y500380D02*
X298450D01*
Y513080D01*
X230450Y304550D02*
Y495550D01*
X8450Y304550D02*
Y495550D01*
X119450D02*
X230450D01*
X8450D02*
X119450D01*
X8450Y304550D02*
X230450D01*
X7180Y69600D02*
X229180D01*
X7180Y260600D02*
X118180D01*
X229180D01*
X7180Y69600D02*
Y260600D01*
X229180Y69600D02*
Y260600D01*
X548125Y555440D02*
X558750D01*
Y516690D02*
Y555440D01*
X520750D02*
X529875D01*
X520750Y516690D02*
Y555440D01*
Y516690D02*
X537500D01*
X529875Y555440D02*
X548125D01*
X537500Y516690D02*
X558750D01*
X548125Y46170D02*
X558750D01*
Y7420D02*
Y46170D01*
X520750D02*
X529875D01*
X520750Y7420D02*
Y46170D01*
Y7420D02*
X537500D01*
X529875Y46170D02*
X548125D01*
X537500Y7420D02*
X558750D01*
X33775Y555440D02*
X44400D01*
Y516690D02*
Y555440D01*
X6400D02*
X15525D01*
X6400Y516690D02*
Y555440D01*
Y516690D02*
X23150D01*
X15525Y555440D02*
X33775D01*
X23150Y516690D02*
X44400D01*
X252731Y157478D02*
X247652D01*
X250192D01*
Y144782D01*
X247652Y142242D01*
X245113D01*
X242574Y144782D01*
X267966Y157478D02*
X257809D01*
Y149860D01*
X262887Y152399D01*
X265427D01*
X267966Y149860D01*
Y144782D01*
X265427Y142242D01*
X260348D01*
X257809Y144782D01*
X255271Y316227D02*
X250193D01*
X252732D01*
Y303532D01*
X250193Y300993D01*
X247653D01*
X245114Y303532D01*
X267967Y300993D02*
Y316227D01*
X260349Y308610D01*
X270506D01*
X314393Y234338D02*
Y221642D01*
X316933Y219102D01*
X322011D01*
X324550Y221642D01*
Y234338D01*
X329628Y219102D02*
X334707D01*
X332168D01*
Y234338D01*
X329628Y231798D01*
X302263Y160023D02*
Y175257D01*
X309881D01*
X312420Y172718D01*
Y167640D01*
X309881Y165101D01*
X302263D01*
X307342D02*
X312420Y160023D01*
X317498D02*
X322577D01*
X320038D01*
Y175257D01*
X317498Y172718D01*
X245114Y407673D02*
Y422907D01*
X252732D01*
X255271Y420368D01*
Y415290D01*
X252732Y412751D01*
X245114D01*
X250193D02*
X255271Y407673D01*
X267967D02*
Y422907D01*
X260349Y415290D01*
X270506D01*
X302264Y367033D02*
Y382267D01*
X309882D01*
X312421Y379728D01*
Y374650D01*
X309882Y372111D01*
X302264D01*
X307342D02*
X312421Y367033D01*
X317499Y379728D02*
X320038Y382267D01*
X325117D01*
X327656Y379728D01*
Y377189D01*
X325117Y374650D01*
X322578D01*
X325117D01*
X327656Y372111D01*
Y369572D01*
X325117Y367033D01*
X320038D01*
X317499Y369572D01*
X34290Y509269D02*
X31751D01*
X33020D01*
Y502921D01*
X31751Y501651D01*
X30481D01*
X29212Y502921D01*
X36829Y501651D02*
X39368D01*
X38099D01*
Y509269D01*
X36829Y507999D01*
X439423Y158748D02*
Y143512D01*
X447041D01*
X449580Y146052D01*
Y156208D01*
X447041Y158748D01*
X439423D01*
X454658Y143512D02*
X459737D01*
X457198D01*
Y158748D01*
X454658Y156208D01*
X276860Y85090D02*
X283631D01*
X278130Y345440D02*
X284901D01*
X275590Y370416D02*
X282361D01*
X278976Y373801D02*
Y367030D01*
X275590Y111336D02*
X282361D01*
X278976Y114721D02*
Y107950D01*
X86359Y502920D02*
X82550Y506729D01*
X86359Y510537D01*
X90168Y506729D02*
X95246D01*
X97785D02*
X102863D01*
X118098Y509268D02*
X116829Y510537D01*
X114290D01*
X113020Y509268D01*
Y507998D01*
X114290Y506729D01*
X116829D01*
X118098Y505459D01*
Y504190D01*
X116829Y502920D01*
X114290D01*
X113020Y504190D01*
X120638Y510537D02*
Y509268D01*
X123177Y506729D01*
X125716Y509268D01*
Y510537D01*
X123177Y506729D02*
Y502920D01*
X133334Y509268D02*
X132064Y510537D01*
X129525D01*
X128255Y509268D01*
Y507998D01*
X129525Y506729D01*
X132064D01*
X133334Y505459D01*
Y504190D01*
X132064Y502920D01*
X129525D01*
X128255Y504190D01*
X147299Y510537D02*
X144760D01*
X143490Y509268D01*
Y504190D01*
X144760Y502920D01*
X147299D01*
X148569Y504190D01*
Y509268D01*
X147299Y510537D01*
X151108D02*
Y504190D01*
X152377Y502920D01*
X154917D01*
X156186Y504190D01*
Y510537D01*
X158725D02*
X163804D01*
X161264D01*
Y502920D01*
X81280Y54608D02*
Y46990D01*
X85089D01*
X86358Y48260D01*
Y49529D01*
X85089Y50799D01*
X81280D01*
X85089D01*
X86358Y52068D01*
Y53338D01*
X85089Y54608D01*
X81280D01*
X88897Y46990D02*
Y52068D01*
X91437Y54608D01*
X93976Y52068D01*
Y46990D01*
Y50799D01*
X88897D01*
X96515Y54608D02*
X101593D01*
X99054D01*
Y46990D01*
X104133Y54608D02*
X109211D01*
X106672D01*
Y46990D01*
X119368Y54608D02*
X121907D01*
X120637D01*
Y46990D01*
X119368D01*
X121907D01*
X125716D02*
Y54608D01*
X130794Y46990D01*
Y54608D01*
X140951Y50799D02*
X146029D01*
X148568D02*
X153647D01*
X156186Y46990D02*
X159994Y50799D01*
X156186Y54608D01*
X336554Y469832D02*
Y485068D01*
X344172D01*
X346711Y482528D01*
Y477450D01*
X344172Y474911D01*
X336554D01*
X341632D02*
X346711Y469832D01*
X361946D02*
X351789D01*
X361946Y479989D01*
Y482528D01*
X359407Y485068D01*
X354328D01*
X351789Y482528D01*
X499111Y467357D02*
X494033D01*
X496572D01*
Y454662D01*
X494033Y452122D01*
X491493D01*
X488954Y454662D01*
X514346Y467357D02*
X509268Y464818D01*
X504189Y459740D01*
Y454662D01*
X506728Y452122D01*
X511807D01*
X514346Y454662D01*
Y457201D01*
X511807Y459740D01*
X504189D01*
X30481Y280667D02*
X25403D01*
X27942D01*
Y267972D01*
X25403Y265432D01*
X22863D01*
X20324Y267972D01*
X35559Y278128D02*
X38098Y280667D01*
X43177D01*
X45716Y278128D01*
Y275589D01*
X43177Y273050D01*
X40637D01*
X43177D01*
X45716Y270511D01*
Y267972D01*
X43177Y265432D01*
X38098D01*
X35559Y267972D01*
X538481Y200058D02*
X533402D01*
X535942D01*
Y187362D01*
X533402Y184823D01*
X530863D01*
X528324Y187362D01*
X553716Y184823D02*
X543559D01*
X553716Y194979D01*
Y197518D01*
X551177Y200058D01*
X546098D01*
X543559Y197518D01*
X435510Y222819D02*
Y207584D01*
X443128D01*
X445667Y210123D01*
Y220280D01*
X443128Y222819D01*
X435510D01*
X460902Y207584D02*
X450746D01*
X460902Y217741D01*
Y220280D01*
X458363Y222819D01*
X453285D01*
X450746Y220280D01*
X302261Y82548D02*
X299722Y85087D01*
X294643D01*
X292104Y82548D01*
Y72392D01*
X294643Y69852D01*
X299722D01*
X302261Y72392D01*
X317496Y69852D02*
X307339D01*
X317496Y80009D01*
Y82548D01*
X314957Y85087D01*
X309878D01*
X307339Y82548D01*
D15*
X316460Y241040D02*
Y272040D01*
X313460Y241040D02*
Y272040D01*
Y241040D02*
X316460D01*
X313460Y272040D02*
X316460D01*
X342800Y165120D02*
Y167120D01*
X330300Y165120D02*
Y167120D01*
X439690Y112730D02*
X453040D01*
Y138730D01*
X439690D02*
X453040D01*
X327210Y330930D02*
X366210D01*
X327210Y430930D02*
X366210D01*
Y330930D02*
Y430930D01*
X327210Y330930D02*
Y430930D01*
X293740Y107200D02*
Y108700D01*
X308240Y107200D02*
Y108700D01*
X380630Y165620D02*
Y167120D01*
X366130Y165620D02*
Y167120D01*
X442310Y176230D02*
X455660D01*
X442310D02*
Y202230D01*
X455660D01*
X526950Y175415D02*
X538800D01*
X526950Y173915D02*
Y175415D01*
Y100415D02*
X538800D01*
X526950D02*
Y101915D01*
X531900Y311870D02*
X555900D01*
X417130Y404410D02*
X555900D01*
X417130Y311870D02*
X460900D01*
X417130Y385990D02*
Y404410D01*
Y311870D02*
Y345490D01*
D16*
X280671Y494453D02*
X279825Y495299D01*
X278132D01*
X277285Y494453D01*
Y493606D01*
X278132Y492760D01*
X279825D01*
X280671Y491914D01*
Y491067D01*
X279825Y490221D01*
X278132D01*
X277285Y491067D01*
X285749Y495299D02*
X284056D01*
X284903D01*
Y491067D01*
X284056Y490221D01*
X283210D01*
X282364Y491067D01*
X287442Y490221D02*
X289135D01*
X288288D01*
Y495299D01*
X287442Y494453D01*
X237490Y510540D02*
X239183D01*
X238336D01*
Y515618D01*
X237490Y514772D01*
X241722D02*
X242568Y515618D01*
X244261D01*
X245107Y514772D01*
Y511386D01*
X244261Y510540D01*
X242568D01*
X241722Y511386D01*
Y514772D01*
X246800D02*
X247647Y515618D01*
X249340D01*
X250186Y514772D01*
Y511386D01*
X249340Y510540D01*
X247647D01*
X246800Y511386D01*
Y514772D01*
X251879Y510540D02*
Y513926D01*
X252725D01*
X253571Y513079D01*
Y510540D01*
Y513079D01*
X254418Y513926D01*
X255264Y513079D01*
Y510540D01*
X256957D02*
Y513926D01*
X258650Y515618D01*
X260343Y513926D01*
Y510540D01*
Y513079D01*
X256957D01*
X343746Y87205D02*
X342899Y88051D01*
X341206D01*
X340360Y87205D01*
Y83819D01*
X341206Y82973D01*
X342899D01*
X343746Y83819D01*
X345438Y88051D02*
Y82973D01*
Y85512D01*
X346285Y86358D01*
X347977D01*
X348824Y85512D01*
Y82973D01*
X351363Y86358D02*
X353056D01*
X353902Y85512D01*
Y82973D01*
X351363D01*
X350517Y83819D01*
X351363Y84666D01*
X353902D01*
X355595Y86358D02*
Y82973D01*
Y84666D01*
X356441Y85512D01*
X357288Y86358D01*
X358134D01*
X362366Y81280D02*
X363213D01*
X364059Y82126D01*
Y86358D01*
X361520D01*
X360673Y85512D01*
Y83819D01*
X361520Y82973D01*
X364059D01*
X365752D02*
X367444D01*
X366598D01*
Y86358D01*
X365752D01*
X369984Y82973D02*
Y86358D01*
X372523D01*
X373369Y85512D01*
Y82973D01*
X376755Y81280D02*
X377601D01*
X378448Y82126D01*
Y86358D01*
X375909D01*
X375062Y85512D01*
Y83819D01*
X375909Y82973D01*
X378448D01*
X303106Y515618D02*
X299720D01*
Y513079D01*
X301413Y513926D01*
X302259D01*
X303106Y513079D01*
Y511386D01*
X302259Y510540D01*
X300566D01*
X299720Y511386D01*
X304798Y514772D02*
X305645Y515618D01*
X307337D01*
X308184Y514772D01*
Y511386D01*
X307337Y510540D01*
X305645D01*
X304798Y511386D01*
Y514772D01*
X309877D02*
X310723Y515618D01*
X312416D01*
X313262Y514772D01*
Y511386D01*
X312416Y510540D01*
X310723D01*
X309877Y511386D01*
Y514772D01*
X314955Y510540D02*
Y513926D01*
X315802D01*
X316648Y513079D01*
Y510540D01*
Y513079D01*
X317494Y513926D01*
X318341Y513079D01*
Y510540D01*
X320033D02*
Y513926D01*
X321726Y515618D01*
X323419Y513926D01*
Y510540D01*
Y513079D01*
X320033D01*
X373380Y193219D02*
X372110Y194489D01*
X369571D01*
X368302Y193219D01*
Y188141D01*
X369571Y186871D01*
X372110D01*
X373380Y188141D01*
X375919Y186871D02*
X378458D01*
X377189D01*
Y194489D01*
X375919Y193219D01*
D17*
X207010Y41058D02*
Y28362D01*
X215474D01*
X219706D02*
X223938D01*
X221822D01*
Y36826D01*
X219706D01*
X230286Y28362D02*
Y41058D01*
X236634D01*
X238750Y38942D01*
Y34710D01*
X236634Y32594D01*
X230286D01*
X245098Y28362D02*
X249330D01*
X251446Y30478D01*
Y34710D01*
X249330Y36826D01*
X245098D01*
X242982Y34710D01*
Y30478D01*
X245098Y28362D01*
X268374Y41058D02*
Y30478D01*
X270489Y28362D01*
X274721D01*
X276837Y30478D01*
Y41058D01*
X289533Y38942D02*
X287417Y41058D01*
X283185D01*
X281069Y38942D01*
Y36826D01*
X283185Y34710D01*
X287417D01*
X289533Y32594D01*
Y30478D01*
X287417Y28362D01*
X283185D01*
X281069Y30478D01*
X293765Y41058D02*
Y28362D01*
X300113D01*
X302229Y30478D01*
Y32594D01*
X300113Y34710D01*
X293765D01*
X300113D01*
X302229Y36826D01*
Y38942D01*
X300113Y41058D01*
X293765D01*
X327621Y38942D02*
X325505Y41058D01*
X321273D01*
X319157Y38942D01*
Y30478D01*
X321273Y28362D01*
X325505D01*
X327621Y30478D01*
X331853Y41058D02*
Y28362D01*
Y34710D01*
X333969Y36826D01*
X338201D01*
X340317Y34710D01*
Y28362D01*
X346665Y36826D02*
X350897D01*
X353013Y34710D01*
Y28362D01*
X346665D01*
X344549Y30478D01*
X346665Y32594D01*
X353013D01*
X357245Y36826D02*
Y28362D01*
Y32594D01*
X359361Y34710D01*
X361477Y36826D01*
X363593D01*
X374173Y24130D02*
X376288D01*
X378405Y26246D01*
Y36826D01*
X372057D01*
X369940Y34710D01*
Y30478D01*
X372057Y28362D01*
X378405D01*
X388984D02*
X384752D01*
X382636Y30478D01*
Y34710D01*
X384752Y36826D01*
X388984D01*
X391100Y34710D01*
Y32594D01*
X382636D01*
X395332Y36826D02*
Y28362D01*
Y32594D01*
X397448Y34710D01*
X399564Y36826D01*
X401680D01*
X408028Y28362D02*
Y30478D01*
X410144D01*
Y28362D01*
X408028D01*
X418608D02*
Y30478D01*
X420724D01*
Y28362D01*
X418608D01*
D18*
X351282Y364998D02*
X341125D01*
Y370076D01*
X342818Y371769D01*
X346204D01*
X347896Y370076D01*
Y364998D01*
X351282Y375155D02*
X341125D01*
Y380233D01*
X342818Y381926D01*
X346204D01*
X347896Y380233D01*
Y375155D01*
Y378540D02*
X351282Y381926D01*
X341125Y390390D02*
Y387004D01*
X342818Y385311D01*
X349589D01*
X351282Y387004D01*
Y390390D01*
X349589Y392083D01*
X342818D01*
X341125Y390390D01*
X342818Y402239D02*
X341125Y400546D01*
Y397161D01*
X342818Y395468D01*
X349589D01*
X351282Y397161D01*
Y400546D01*
X349589Y402239D01*
X346204D01*
Y398854D01*
D19*
X424094Y464310D02*
X421978Y463252D01*
X419862Y461136D01*
Y459020D01*
X420920Y457962D01*
X423036D01*
X424094Y459020D01*
Y460078D01*
X423036Y461136D01*
X419862D01*
X426210Y464310D02*
Y460078D01*
X428326Y457962D01*
X430442Y460078D01*
Y464310D01*
X438906Y457962D02*
Y462194D01*
X439964D01*
X441022Y461136D01*
Y457962D01*
Y461136D01*
X442080Y462194D01*
X443138Y461136D01*
Y457962D01*
X446312Y462194D02*
X448428D01*
X449486Y461136D01*
Y457962D01*
X446312D01*
X445254Y459020D01*
X446312Y460078D01*
X449486D01*
X451602Y462194D02*
X455834Y457962D01*
X453718Y460078D01*
X455834Y462194D01*
X451602Y457962D01*
D20*
X449144Y125730D02*
D03*
X446205Y189229D02*
D03*
M02*
