G04*
G04 #@! TF.GenerationSoftware,Altium Limited,Altium Designer,25.4.2 (15)*
G04*
G04 Layer_Color=128*
%FSLAX44Y44*%
%MOMM*%
G71*
G04*
G04 #@! TF.SameCoordinates,15869630-21D1-4171-BE07-BC68FFD32C74*
G04*
G04*
G04 #@! TF.FilePolarity,Positive*
G04*
G01*
G75*
%ADD16C,0.1270*%
D16*
X252730Y123190D02*
X262890D01*
X257810Y118110D02*
Y128270D01*
X252730Y97790D02*
X262890D01*
X257810Y92710D02*
Y102870D01*
X252730Y370840D02*
X262890D01*
X257810Y365760D02*
Y375920D01*
X252730Y345440D02*
X262890D01*
X257810Y340360D02*
Y350520D01*
X11940Y26670D02*
X43940D01*
X27940Y10670D02*
Y42670D01*
X210400Y374650D02*
X221400D01*
X215900Y369150D02*
Y380150D01*
X210400Y425450D02*
X221400D01*
X215900Y419950D02*
Y430950D01*
X124700Y463550D02*
X154700D01*
X139700Y448550D02*
Y478550D01*
X124700Y336550D02*
X154700D01*
X139700Y321550D02*
Y351550D01*
X341210Y455930D02*
X352210D01*
X346710Y450430D02*
Y461430D01*
X341210Y305930D02*
X352210D01*
X346710Y300430D02*
Y311430D01*
X123430Y101600D02*
X153430D01*
X138430Y86600D02*
Y116600D01*
X123430Y228600D02*
X153430D01*
X138430Y213600D02*
Y243600D01*
X209130Y190500D02*
X220130D01*
X214630Y185000D02*
Y196000D01*
X209130Y139700D02*
X220130D01*
X214630Y134200D02*
Y145200D01*
X524500Y358140D02*
X542300D01*
X533400Y349240D02*
Y367040D01*
X523750Y535940D02*
X555750D01*
X539750Y519940D02*
Y551940D01*
X523750Y26670D02*
X555750D01*
X539750Y10670D02*
Y42670D01*
X9400Y535940D02*
X41400D01*
X25400Y519940D02*
Y551940D01*
X484124Y151130D02*
X491236D01*
X487680Y147574D02*
Y154686D01*
X299974Y297180D02*
X307086D01*
X303530Y293624D02*
Y300736D01*
X332994Y201930D02*
X340106D01*
X336550Y198374D02*
Y205486D01*
X369824Y205740D02*
X376936D01*
X373380Y202184D02*
Y209296D01*
X254254Y431800D02*
X261366D01*
X257810Y428244D02*
Y435356D01*
X425577Y434340D02*
X431673D01*
X428625Y431292D02*
Y437388D01*
X402082Y434340D02*
X408178D01*
X405130Y431292D02*
Y437388D01*
X449072Y414020D02*
X455168D01*
X452120Y410972D02*
Y417068D01*
X425577Y414020D02*
X431673D01*
X428625Y410972D02*
Y417068D01*
X402082Y414020D02*
X408178D01*
X405130Y410972D02*
Y417068D01*
X449072Y434340D02*
X455168D01*
X452120Y431292D02*
Y437388D01*
M02*
