G04*
G04 #@! TF.GenerationSoftware,Altium Limited,Altium Designer,25.4.2 (15)*
G04*
G04 Layer_Physical_Order=1*
G04 Layer_Color=255*
%FSLAX44Y44*%
%MOMM*%
G71*
G04*
G04 #@! TF.SameCoordinates,15869630-21D1-4171-BE07-BC68FFD32C74*
G04*
G04*
G04 #@! TF.FilePolarity,Positive*
G04*
G01*
G75*
%ADD10C,0.5080*%
%ADD17C,0.3810*%
%ADD18C,0.3048*%
%ADD21R,0.6000X0.8000*%
%ADD22R,1.3000X0.7000*%
%ADD23R,1.4500X1.0500*%
%ADD24R,1.5500X1.3500*%
%ADD25R,0.6350X1.2700*%
%ADD26R,2.0000X2.0000*%
%ADD27R,1.4000X0.9500*%
%ADD28R,1.3800X0.4500*%
%ADD29R,2.1000X1.4750*%
%ADD30R,1.9000X2.3750*%
%ADD31R,1.9000X1.1750*%
%ADD32R,6.3500X3.3000*%
%ADD33R,6.3500X3.8100*%
%ADD34R,4.0600X3.3000*%
%ADD45C,1.5240*%
%ADD51C,1.7800*%
%ADD54C,0.3302*%
%ADD55C,1.0160*%
%ADD56C,1.0000*%
%ADD57C,1.6500*%
%ADD58C,4.5000*%
%ADD59R,1.6000X1.6000*%
%ADD60C,1.6000*%
%ADD61C,1.2700*%
%ADD62C,0.8636*%
G36*
X541020Y396240D02*
X438150D01*
Y340360D01*
X382270D01*
Y449580D01*
X541020D01*
Y396240D01*
D02*
G37*
G36*
X529590Y247650D02*
X485140D01*
Y177800D01*
X458470D01*
Y318770D01*
X529590D01*
Y247650D01*
D02*
G37*
G36*
X267970Y355728D02*
X199088D01*
X189230Y345870D01*
Y267970D01*
X207010Y250190D01*
X309880D01*
Y111760D01*
X223520Y111760D01*
X185420Y73660D01*
X81280D01*
Y384810D01*
X87630Y391160D01*
X267970D01*
Y355728D01*
D02*
G37*
G36*
X438150Y199390D02*
Y95250D01*
X364490D01*
Y163830D01*
X406400D01*
Y199390D01*
X361950Y243840D01*
X321310D01*
Y251460D01*
X386080D01*
X438150Y199390D01*
D02*
G37*
%LPC*%
G36*
X217320Y385440D02*
X214480D01*
X211735Y384705D01*
X209275Y383284D01*
X207266Y381275D01*
X205845Y378815D01*
X205110Y376071D01*
Y373229D01*
X205845Y370485D01*
X207266Y368025D01*
X209275Y366016D01*
X211735Y364595D01*
X214480Y363860D01*
X217320D01*
X220065Y364595D01*
X222525Y366016D01*
X224534Y368025D01*
X225955Y370485D01*
X226690Y373229D01*
Y376071D01*
X225955Y378815D01*
X224534Y381275D01*
X222525Y383284D01*
X220065Y384705D01*
X217320Y385440D01*
D02*
G37*
G36*
X140896Y253640D02*
X135964D01*
X131126Y252678D01*
X126569Y250790D01*
X122468Y248050D01*
X118980Y244562D01*
X116240Y240461D01*
X114352Y235904D01*
X113390Y231066D01*
Y226134D01*
X114352Y221296D01*
X116240Y216739D01*
X118980Y212638D01*
X122468Y209150D01*
X126569Y206410D01*
X131126Y204522D01*
X135964Y203560D01*
X140896D01*
X145734Y204522D01*
X150291Y206410D01*
X154392Y209150D01*
X157880Y212638D01*
X160620Y216739D01*
X162508Y221296D01*
X163470Y226134D01*
Y231066D01*
X162508Y235904D01*
X160620Y240461D01*
X157880Y244562D01*
X154392Y248050D01*
X150291Y250790D01*
X145734Y252678D01*
X140896Y253640D01*
D02*
G37*
G36*
X216050Y201290D02*
X213209D01*
X210465Y200555D01*
X208005Y199134D01*
X205996Y197125D01*
X204575Y194665D01*
X203840Y191921D01*
Y189079D01*
X204575Y186335D01*
X205996Y183875D01*
X208005Y181866D01*
X210465Y180445D01*
X213209Y179710D01*
X216050D01*
X218795Y180445D01*
X221255Y181866D01*
X223264Y183875D01*
X224685Y186335D01*
X225420Y189079D01*
Y191921D01*
X224685Y194665D01*
X223264Y197125D01*
X221255Y199134D01*
X218795Y200555D01*
X216050Y201290D01*
D02*
G37*
G36*
Y150490D02*
X213209D01*
X210465Y149755D01*
X208005Y148334D01*
X205996Y146325D01*
X204575Y143865D01*
X203840Y141121D01*
Y138279D01*
X204575Y135535D01*
X205996Y133075D01*
X208005Y131066D01*
X210465Y129645D01*
X213209Y128910D01*
X216050D01*
X218795Y129645D01*
X221255Y131066D01*
X223264Y133075D01*
X224685Y135535D01*
X225420Y138279D01*
Y141121D01*
X224685Y143865D01*
X223264Y146325D01*
X221255Y148334D01*
X218795Y149755D01*
X216050Y150490D01*
D02*
G37*
%LPD*%
D10*
X299900Y98880D02*
X300990Y99970D01*
X257810Y97790D02*
X258900Y98880D01*
X302040Y257460D02*
X302960Y256540D01*
X294356Y257460D02*
X302040D01*
X257810Y294006D02*
X294356Y257460D01*
X257810Y294006D02*
Y345440D01*
X373380Y175620D02*
Y205740D01*
X326960Y266040D02*
Y325680D01*
X346300Y456340D02*
X346710Y455930D01*
X257810Y431800D02*
Y456340D01*
D17*
X302960Y266040D02*
X303530Y266610D01*
Y297180D01*
X336550Y175370D02*
Y201930D01*
X354206Y100330D02*
Y126353D01*
X336550Y144009D02*
X354206Y126353D01*
X336550Y144009D02*
Y156870D01*
X326320Y326320D02*
X326960Y325680D01*
X326320Y326320D02*
X346710Y305930D01*
X283210Y369430D02*
X326320Y326320D01*
X283210Y369430D02*
Y510540D01*
X307350Y475840D02*
Y492115D01*
X292100Y507365D02*
Y510540D01*
Y507365D02*
X307350Y492115D01*
X274320Y507365D02*
Y510540D01*
X257810Y475840D02*
Y490855D01*
X274320Y507365D01*
X465770Y125730D02*
X467040D01*
D18*
X467255Y125515D01*
D21*
X369200Y124460D02*
D03*
X354700D02*
D03*
X369200Y100330D02*
D03*
X354700D02*
D03*
D22*
X326960Y266040D02*
D03*
Y247040D02*
D03*
X302960D02*
D03*
Y256540D02*
D03*
Y266040D02*
D03*
D23*
X336550Y175370D02*
D03*
Y156870D02*
D03*
D24*
X257810Y456340D02*
D03*
Y475840D02*
D03*
X307340Y456340D02*
D03*
Y475840D02*
D03*
D25*
X274320Y510540D02*
D03*
X283210D02*
D03*
X292100D02*
D03*
D26*
X427040Y125730D02*
D03*
X467040D02*
D03*
X428310Y189230D02*
D03*
X468310D02*
D03*
D27*
X300990Y98700D02*
D03*
Y117200D02*
D03*
X373380Y175620D02*
D03*
Y157120D02*
D03*
D28*
X525850Y124915D02*
D03*
Y131415D02*
D03*
Y137915D02*
D03*
Y144415D02*
D03*
Y150915D02*
D03*
D29*
X529450Y113290D02*
D03*
Y162540D02*
D03*
D30*
X552450Y108790D02*
D03*
Y167040D02*
D03*
D31*
Y129540D02*
D03*
Y146290D02*
D03*
D32*
X495800Y426740D02*
D03*
D33*
Y293840D02*
D03*
D34*
X404400Y365740D02*
D03*
D45*
X257810Y123190D02*
D03*
Y97790D02*
D03*
Y370840D02*
D03*
Y345440D02*
D03*
D51*
X533400Y358140D02*
D03*
D54*
X487836Y150974D02*
X525791D01*
X487680Y151130D02*
X487836Y150974D01*
X465770Y125730D02*
X466585Y124915D01*
X525850D01*
X525791Y150974D02*
X525850Y150915D01*
D55*
X258900Y98880D02*
X299900D01*
X307340Y456340D02*
X346300D01*
D56*
X27940Y26670D02*
D03*
X539750Y535940D02*
D03*
Y26670D02*
D03*
X25400Y535940D02*
D03*
D57*
X215900Y374650D02*
D03*
Y425450D02*
D03*
X214630Y190500D02*
D03*
Y139700D02*
D03*
D58*
X139700Y463550D02*
D03*
Y336550D02*
D03*
X138430Y101600D02*
D03*
Y228600D02*
D03*
D59*
X346710Y455930D02*
D03*
D60*
Y305930D02*
D03*
D61*
X487680Y151130D02*
D03*
X303530Y297180D02*
D03*
X336550Y201930D02*
D03*
X373380Y205740D02*
D03*
X257810Y431800D02*
D03*
D62*
X428625Y434340D02*
D03*
X405130D02*
D03*
X452120Y414020D02*
D03*
X428625D02*
D03*
X405130D02*
D03*
X452120Y434340D02*
D03*
M02*
