G04*
G04 #@! TF.GenerationSoftware,Altium Limited,Altium Designer,25.4.2 (15)*
G04*
G04 Layer_Color=2752767*
%FSLAX44Y44*%
%MOMM*%
G71*
G04*
G04 #@! TF.SameCoordinates,15869630-21D1-4171-BE07-BC68FFD32C74*
G04*
G04*
G04 #@! TF.FilePolarity,Positive*
G04*
G01*
G75*
%ADD16C,0.1270*%
%ADD63C,0.1693*%
D16*
X257810Y118110D02*
X252730Y128270D01*
X262890D01*
X257810Y118110D01*
Y92710D02*
X252730Y102870D01*
X262890D01*
X257810Y92710D01*
Y365760D02*
X252730Y375920D01*
X262890D01*
X257810Y365760D01*
Y340360D02*
X252730Y350520D01*
X262890D01*
X257810Y340360D01*
X22860Y21590D02*
X25400Y26670D01*
X22860Y31750D01*
X27940Y29210D01*
X33020Y31750D01*
X30480Y26670D01*
X33020Y21590D01*
X27940Y24130D01*
X22860Y21590D01*
X134620Y458470D02*
Y468630D01*
X144780D01*
Y458470D01*
X134620D01*
Y331470D02*
Y341630D01*
X144780D01*
Y331470D01*
X134620D01*
X133350Y96520D02*
Y106680D01*
X143510D01*
Y96520D01*
X133350D01*
Y223520D02*
Y233680D01*
X143510D01*
Y223520D01*
X133350D01*
X533400Y353060D02*
X535940Y355600D01*
X538480D01*
X535940Y358140D01*
X538480Y360680D01*
X535940D01*
X533400Y363220D01*
X530860Y360680D01*
X528320D01*
X530860Y358140D01*
X528320Y355600D01*
X530860D01*
X533400Y353060D01*
X534670Y530860D02*
X537210Y535940D01*
X534670Y541020D01*
X539750Y538480D01*
X544830Y541020D01*
X542290Y535940D01*
X544830Y530860D01*
X539750Y533400D01*
X534670Y530860D01*
Y21590D02*
X537210Y26670D01*
X534670Y31750D01*
X539750Y29210D01*
X544830Y31750D01*
X542290Y26670D01*
X544830Y21590D01*
X539750Y24130D01*
X534670Y21590D01*
X20320Y530860D02*
X22860Y535940D01*
X20320Y541020D01*
X25400Y538480D01*
X30480Y541020D01*
X27940Y535940D01*
X30480Y530860D01*
X25400Y533400D01*
X20320Y530860D01*
X485140Y148590D02*
Y146050D01*
X490220D01*
Y148590D01*
X492760D01*
Y153670D01*
X490220D01*
Y156210D01*
X485140D01*
Y153670D01*
X482600D01*
Y148590D01*
X485140D01*
X300990Y294640D02*
Y292100D01*
X306070D01*
Y294640D01*
X308610D01*
Y299720D01*
X306070D01*
Y302260D01*
X300990D01*
Y299720D01*
X298450D01*
Y294640D01*
X300990D01*
X334010Y199390D02*
Y196850D01*
X339090D01*
Y199390D01*
X341630D01*
Y204470D01*
X339090D01*
Y207010D01*
X334010D01*
Y204470D01*
X331470D01*
Y199390D01*
X334010D01*
X370840Y203200D02*
Y200660D01*
X375920D01*
Y203200D01*
X378460D01*
Y208280D01*
X375920D01*
Y210820D01*
X370840D01*
Y208280D01*
X368300D01*
Y203200D01*
X370840D01*
X255270Y429260D02*
Y426720D01*
X260350D01*
Y429260D01*
X262890D01*
Y434340D01*
X260350D01*
Y436880D01*
X255270D01*
Y434340D01*
X252730D01*
Y429260D01*
X255270D01*
X423545D02*
X426085D01*
X428625Y431800D01*
X431165Y429260D01*
X433705D01*
Y431800D01*
X431165Y434340D01*
X433705Y436880D01*
Y439420D01*
X431165D01*
X428625Y436880D01*
X426085Y439420D01*
X423545D01*
Y436880D01*
X426085Y434340D01*
X423545Y431800D01*
Y429260D01*
X400050D02*
X402590D01*
X405130Y431800D01*
X407670Y429260D01*
X410210D01*
Y431800D01*
X407670Y434340D01*
X410210Y436880D01*
Y439420D01*
X407670D01*
X405130Y436880D01*
X402590Y439420D01*
X400050D01*
Y436880D01*
X402590Y434340D01*
X400050Y431800D01*
Y429260D01*
X447040Y408940D02*
X449580D01*
X452120Y411480D01*
X454660Y408940D01*
X457200D01*
Y411480D01*
X454660Y414020D01*
X457200Y416560D01*
Y419100D01*
X454660D01*
X452120Y416560D01*
X449580Y419100D01*
X447040D01*
Y416560D01*
X449580Y414020D01*
X447040Y411480D01*
Y408940D01*
X423545D02*
X426085D01*
X428625Y411480D01*
X431165Y408940D01*
X433705D01*
Y411480D01*
X431165Y414020D01*
X433705Y416560D01*
Y419100D01*
X431165D01*
X428625Y416560D01*
X426085Y419100D01*
X423545D01*
Y416560D01*
X426085Y414020D01*
X423545Y411480D01*
Y408940D01*
X400050D02*
X402590D01*
X405130Y411480D01*
X407670Y408940D01*
X410210D01*
Y411480D01*
X407670Y414020D01*
X410210Y416560D01*
Y419100D01*
X407670D01*
X405130Y416560D01*
X402590Y419100D01*
X400050D01*
Y416560D01*
X402590Y414020D01*
X400050Y411480D01*
Y408940D01*
X447040Y429260D02*
X449580D01*
X452120Y431800D01*
X454660Y429260D01*
X457200D01*
Y431800D01*
X454660Y434340D01*
X457200Y436880D01*
Y439420D01*
X454660D01*
X452120Y436880D01*
X449580Y439420D01*
X447040D01*
Y436880D01*
X449580Y434340D01*
X447040Y431800D01*
Y429260D01*
D63*
X220980Y374650D02*
G03*
X220980Y374650I-5080J0D01*
G01*
Y425450D02*
G03*
X220980Y425450I-5080J0D01*
G01*
X351790Y455930D02*
G03*
X351790Y455930I-5080J0D01*
G01*
Y305930D02*
G03*
X351790Y305930I-5080J0D01*
G01*
X219710Y190500D02*
G03*
X219710Y190500I-5080J0D01*
G01*
Y139700D02*
G03*
X219710Y139700I-5080J0D01*
G01*
M02*
