G04*
G04 #@! TF.GenerationSoftware,Altium Limited,Altium Designer,25.4.2 (15)*
G04*
G04 Layer_Physical_Order=2*
G04 Layer_Color=16711680*
%FSLAX44Y44*%
%MOMM*%
G71*
G04*
G04 #@! TF.SameCoordinates,15869630-21D1-4171-BE07-BC68FFD32C74*
G04*
G04*
G04 #@! TF.FilePolarity,Positive*
G04*
G01*
G75*
%ADD17C,0.3810*%
%ADD45C,1.5240*%
%ADD51C,1.7800*%
%ADD56C,1.0000*%
%ADD57C,1.6500*%
%ADD58C,4.5000*%
%ADD59R,1.6000X1.6000*%
%ADD60C,1.6000*%
%ADD61C,1.2700*%
%ADD62C,0.8636*%
G36*
X563781Y5179D02*
X5179D01*
Y529890D01*
X7573Y530532D01*
X8970Y527158D01*
X10999Y524121D01*
X13581Y521539D01*
X16618Y519510D01*
X19992Y518112D01*
X23574Y517400D01*
X27226D01*
X30808Y518112D01*
X34182Y519510D01*
X37219Y521539D01*
X39801Y524121D01*
X41830Y527158D01*
X43228Y530532D01*
X43940Y534114D01*
Y537766D01*
X43228Y541348D01*
X41830Y544722D01*
X39801Y547759D01*
X37219Y550341D01*
X34182Y552370D01*
X30808Y553768D01*
X31450Y556161D01*
X533700D01*
X534342Y553768D01*
X530968Y552370D01*
X527931Y550341D01*
X525349Y547759D01*
X523320Y544722D01*
X521922Y541348D01*
X521210Y537766D01*
Y534114D01*
X521922Y530532D01*
X523320Y527158D01*
X525349Y524121D01*
X527931Y521539D01*
X530968Y519510D01*
X534342Y518112D01*
X537924Y517400D01*
X541576D01*
X545158Y518112D01*
X548532Y519510D01*
X551569Y521539D01*
X554151Y524121D01*
X556180Y527158D01*
X557578Y530532D01*
X558290Y534114D01*
Y537766D01*
X557578Y541348D01*
X556180Y544722D01*
X554151Y547759D01*
X551569Y550341D01*
X548532Y552370D01*
X545158Y553768D01*
X545800Y556161D01*
X563781D01*
Y5179D01*
D02*
G37*
%LPC*%
G36*
X217320Y436240D02*
X214480D01*
X211735Y435505D01*
X209275Y434084D01*
X207266Y432075D01*
X205845Y429615D01*
X205110Y426870D01*
Y424030D01*
X205845Y421285D01*
X207266Y418825D01*
X209275Y416816D01*
X211735Y415395D01*
X214480Y414660D01*
X217320D01*
X220065Y415395D01*
X222525Y416816D01*
X224534Y418825D01*
X225955Y421285D01*
X226690Y424030D01*
Y426870D01*
X225955Y429615D01*
X224534Y432075D01*
X222525Y434084D01*
X220065Y435505D01*
X217320Y436240D01*
D02*
G37*
G36*
Y385440D02*
X214480D01*
X211735Y384705D01*
X209275Y383284D01*
X207266Y381275D01*
X205845Y378815D01*
X205110Y376071D01*
Y373229D01*
X205845Y370485D01*
X207266Y368025D01*
X209275Y366016D01*
X211735Y364595D01*
X214480Y363860D01*
X217320D01*
X220065Y364595D01*
X222525Y366016D01*
X224534Y368025D01*
X225955Y370485D01*
X226690Y373229D01*
Y376071D01*
X225955Y378815D01*
X224534Y381275D01*
X222525Y383284D01*
X220065Y384705D01*
X217320Y385440D01*
D02*
G37*
G36*
X259148Y381000D02*
X256472D01*
X253888Y380308D01*
X251572Y378970D01*
X249680Y377078D01*
X248342Y374762D01*
X247650Y372178D01*
Y369502D01*
X248342Y366918D01*
X249680Y364602D01*
X251572Y362710D01*
X253888Y361372D01*
X256472Y360680D01*
X259148D01*
X261732Y361372D01*
X264048Y362710D01*
X265940Y364602D01*
X267278Y366918D01*
X267970Y369502D01*
Y372178D01*
X267278Y374762D01*
X265940Y377078D01*
X264048Y378970D01*
X261732Y380308D01*
X259148Y381000D01*
D02*
G37*
G36*
X534906Y369580D02*
X531894D01*
X528984Y368800D01*
X526376Y367294D01*
X524246Y365164D01*
X522740Y362556D01*
X521960Y359646D01*
Y356634D01*
X522740Y353724D01*
X524246Y351116D01*
X526376Y348986D01*
X528984Y347480D01*
X531894Y346700D01*
X534906D01*
X537816Y347480D01*
X540424Y348986D01*
X542554Y351116D01*
X544060Y353724D01*
X544840Y356634D01*
Y359646D01*
X544060Y362556D01*
X542554Y365164D01*
X540424Y367294D01*
X537816Y368800D01*
X534906Y369580D01*
D02*
G37*
G36*
X142166Y361590D02*
X137234D01*
X132396Y360628D01*
X127839Y358740D01*
X123738Y356000D01*
X120250Y352512D01*
X117510Y348411D01*
X115622Y343854D01*
X114660Y339016D01*
Y334084D01*
X115622Y329246D01*
X117510Y324689D01*
X120250Y320588D01*
X123738Y317100D01*
X127839Y314360D01*
X132396Y312472D01*
X137234Y311510D01*
X142166D01*
X147004Y312472D01*
X151561Y314360D01*
X155662Y317100D01*
X159150Y320588D01*
X161890Y324689D01*
X163778Y329246D01*
X164740Y334084D01*
Y339016D01*
X163778Y343854D01*
X161890Y348411D01*
X159150Y352512D01*
X155662Y356000D01*
X151561Y358740D01*
X147004Y360628D01*
X142166Y361590D01*
D02*
G37*
G36*
X348098Y316470D02*
X345322D01*
X342642Y315752D01*
X340238Y314364D01*
X338276Y312402D01*
X336888Y309998D01*
X336170Y307318D01*
Y304542D01*
X336888Y301862D01*
X338276Y299458D01*
X340238Y297496D01*
X342642Y296108D01*
X345322Y295390D01*
X348098D01*
X350778Y296108D01*
X353182Y297496D01*
X355144Y299458D01*
X356532Y301862D01*
X357250Y304542D01*
Y307318D01*
X356532Y309998D01*
X355144Y312402D01*
X353182Y314364D01*
X350778Y315752D01*
X348098Y316470D01*
D02*
G37*
G36*
X304700Y306070D02*
X302360D01*
X300099Y305464D01*
X298071Y304294D01*
X296416Y302639D01*
X295246Y300611D01*
X294640Y298350D01*
Y296010D01*
X295246Y293749D01*
X296416Y291721D01*
X298071Y290066D01*
X300099Y288896D01*
X302360Y288290D01*
X304700D01*
X305734Y288567D01*
X310428Y283873D01*
Y223520D01*
X310773Y221786D01*
X311755Y220315D01*
X327937Y204134D01*
X327660Y203100D01*
Y200760D01*
X328266Y198499D01*
X329436Y196471D01*
X331091Y194816D01*
X333119Y193646D01*
X335380Y193040D01*
X337720D01*
X339981Y193646D01*
X342009Y194816D01*
X343664Y196471D01*
X344834Y198499D01*
X345440Y200760D01*
Y203100D01*
X344834Y205361D01*
X343664Y207389D01*
X342009Y209044D01*
X339981Y210214D01*
X337720Y210820D01*
X335380D01*
X334346Y210543D01*
X319492Y225397D01*
Y285750D01*
X319147Y287484D01*
X318165Y288955D01*
X312143Y294976D01*
X312420Y296010D01*
Y298350D01*
X311814Y300611D01*
X310644Y302639D01*
X308989Y304294D01*
X306961Y305464D01*
X304700Y306070D01*
D02*
G37*
G36*
X216050Y201290D02*
X213209D01*
X210465Y200555D01*
X208005Y199134D01*
X205996Y197125D01*
X204575Y194665D01*
X203840Y191921D01*
Y189079D01*
X204575Y186335D01*
X205996Y183875D01*
X208005Y181866D01*
X210465Y180445D01*
X213209Y179710D01*
X216050D01*
X218795Y180445D01*
X221255Y181866D01*
X223264Y183875D01*
X224685Y186335D01*
X225420Y189079D01*
Y191921D01*
X224685Y194665D01*
X223264Y197125D01*
X221255Y199134D01*
X218795Y200555D01*
X216050Y201290D01*
D02*
G37*
G36*
Y150490D02*
X213209D01*
X210465Y149755D01*
X208005Y148334D01*
X205996Y146325D01*
X204575Y143865D01*
X203840Y141121D01*
Y138279D01*
X204575Y135535D01*
X205996Y133075D01*
X208005Y131066D01*
X210465Y129645D01*
X213209Y128910D01*
X216050D01*
X218795Y129645D01*
X221255Y131066D01*
X223264Y133075D01*
X224685Y135535D01*
X225420Y138279D01*
Y141121D01*
X224685Y143865D01*
X223264Y146325D01*
X221255Y148334D01*
X218795Y149755D01*
X216050Y150490D01*
D02*
G37*
G36*
X259148Y133350D02*
X256472D01*
X253888Y132658D01*
X251572Y131320D01*
X249680Y129428D01*
X248342Y127112D01*
X247650Y124528D01*
Y121852D01*
X248342Y119268D01*
X249680Y116952D01*
X251572Y115060D01*
X253888Y113722D01*
X256472Y113030D01*
X259148D01*
X261732Y113722D01*
X264048Y115060D01*
X265940Y116952D01*
X267278Y119268D01*
X267970Y121852D01*
Y124528D01*
X267278Y127112D01*
X265940Y129428D01*
X264048Y131320D01*
X261732Y132658D01*
X259148Y133350D01*
D02*
G37*
G36*
X140896Y126640D02*
X135964D01*
X131126Y125678D01*
X126569Y123790D01*
X122468Y121050D01*
X118980Y117562D01*
X116240Y113461D01*
X114352Y108904D01*
X113390Y104066D01*
Y99134D01*
X114352Y94296D01*
X116240Y89739D01*
X118980Y85638D01*
X122468Y82150D01*
X126569Y79410D01*
X131126Y77522D01*
X135964Y76560D01*
X140896D01*
X145734Y77522D01*
X150291Y79410D01*
X154392Y82150D01*
X157880Y85638D01*
X160620Y89739D01*
X162508Y94296D01*
X163470Y99134D01*
Y104066D01*
X162508Y108904D01*
X160620Y113461D01*
X157880Y117562D01*
X154392Y121050D01*
X150291Y123790D01*
X145734Y125678D01*
X140896Y126640D01*
D02*
G37*
G36*
X541576Y45210D02*
X537924D01*
X534342Y44497D01*
X530968Y43100D01*
X527931Y41071D01*
X525349Y38489D01*
X523320Y35452D01*
X521922Y32078D01*
X521210Y28496D01*
Y24844D01*
X521922Y21262D01*
X523320Y17888D01*
X525349Y14851D01*
X527931Y12269D01*
X530968Y10240D01*
X534342Y8842D01*
X537924Y8130D01*
X541576D01*
X545158Y8842D01*
X548532Y10240D01*
X551569Y12269D01*
X554151Y14851D01*
X556180Y17888D01*
X557578Y21262D01*
X558290Y24844D01*
Y28496D01*
X557578Y32078D01*
X556180Y35452D01*
X554151Y38489D01*
X551569Y41071D01*
X548532Y43100D01*
X545158Y44497D01*
X541576Y45210D01*
D02*
G37*
G36*
X29766D02*
X26114D01*
X22532Y44497D01*
X19158Y43100D01*
X16121Y41071D01*
X13539Y38489D01*
X11510Y35452D01*
X10113Y32078D01*
X9400Y28496D01*
Y24844D01*
X10113Y21262D01*
X11510Y17888D01*
X13539Y14851D01*
X16121Y12269D01*
X19158Y10240D01*
X22532Y8842D01*
X26114Y8130D01*
X29766D01*
X33348Y8842D01*
X36722Y10240D01*
X39759Y12269D01*
X42341Y14851D01*
X44370Y17888D01*
X45767Y21262D01*
X46480Y24844D01*
Y28496D01*
X45767Y32078D01*
X44370Y35452D01*
X42341Y38489D01*
X39759Y41071D01*
X36722Y43100D01*
X33348Y44497D01*
X29766Y45210D01*
D02*
G37*
%LPD*%
D17*
X303530Y297180D02*
X314960Y285750D01*
Y223520D02*
Y285750D01*
Y223520D02*
X336550Y201930D01*
D45*
X257810Y123190D02*
D03*
Y97790D02*
D03*
Y370840D02*
D03*
Y345440D02*
D03*
D51*
X533400Y358140D02*
D03*
D56*
X27940Y26670D02*
D03*
X539750Y535940D02*
D03*
Y26670D02*
D03*
X25400Y535940D02*
D03*
D57*
X215900Y374650D02*
D03*
Y425450D02*
D03*
X214630Y190500D02*
D03*
Y139700D02*
D03*
D58*
X139700Y463550D02*
D03*
Y336550D02*
D03*
X138430Y101600D02*
D03*
Y228600D02*
D03*
D59*
X346710Y455930D02*
D03*
D60*
Y305930D02*
D03*
D61*
X487680Y151130D02*
D03*
X303530Y297180D02*
D03*
X336550Y201930D02*
D03*
X373380Y205740D02*
D03*
X257810Y431800D02*
D03*
D62*
X428625Y434340D02*
D03*
X405130D02*
D03*
X452120Y414020D02*
D03*
X428625D02*
D03*
X405130D02*
D03*
X452120Y434340D02*
D03*
M02*
