M48
;Layer_Color=9474304
;FILE_FORMAT=4:4
METRIC,LZ
;TYPE=PLATED
T01F00S00C0.6096
T02F00S00C0.7112
T03F00S00C1.0160
T04F00S00C1.1000
T05F00S00C3.0000
T06F00S00C3.2000
;TYPE=NON_PLATED
T07F00S00C1.7800
%
T01
X0040513Y0041402
Y0043434
X00428625
Y0041402
X0045212
Y0043434
T02
X0033655Y0020193
X0037338Y0020574
X0030353Y0029718
X0025781Y004318
X0048768Y0015113
T03
X0025781Y0009779
Y0012319
Y0034544
Y0037084
T04
X0021463Y001397
Y001905
X002159Y0037465
Y0042545
X0034671Y0045593
Y0030593
T05
X0013843Y001016
Y002286
X001397Y0033655
Y0046355
T06
X0002794Y0002667
X0053975
X000254Y0053594
X0053975
T07
X005334Y0035814
M30
